<svg width="6" height="10" viewBox="0 0 6 10" fill="none" xmlns="http://www.w3.org/2000/svg">
<path d="M0.341309 8.28223C0.341309 8.05273 0.412109 7.85986 0.553711 7.70361C0.700195 7.54248 0.910156 7.46191 1.18359 7.46191C1.45703 7.46191 1.66455 7.54248 1.80615 7.70361C1.95264 7.85986 2.02588 8.05273 2.02588 8.28223C2.02588 8.50684 1.95264 8.69727 1.80615 8.85352C1.66455 9.00977 1.45703 9.08789 1.18359 9.08789C0.910156 9.08789 0.700195 9.00977 0.553711 8.85352C0.412109 8.69727 0.341309 8.50684 0.341309 8.28223ZM0.348633 1.81494C0.348633 1.58545 0.419434 1.39258 0.561035 1.23633C0.70752 1.0752 0.91748 0.994629 1.19092 0.994629C1.46436 0.994629 1.67188 1.0752 1.81348 1.23633C1.95996 1.39258 2.0332 1.58545 2.0332 1.81494C2.0332 2.03955 1.95996 2.22998 1.81348 2.38623C1.67188 2.54248 1.46436 2.62061 1.19092 2.62061C0.91748 2.62061 0.70752 2.54248 0.561035 2.38623C0.419434 2.22998 0.348633 2.03955 0.348633 1.81494ZM3.97412 8.28223C3.97412 8.05273 4.04492 7.85986 4.18652 7.70361C4.33301 7.54248 4.54297 7.46191 4.81641 7.46191C5.08984 7.46191 5.29736 7.54248 5.43896 7.70361C5.58545 7.85986 5.65869 8.05273 5.65869 8.28223C5.65869 8.50684 5.58545 8.69727 5.43896 8.85352C5.29736 9.00977 5.08984 9.08789 4.81641 9.08789C4.54297 9.08789 4.33301 9.00977 4.18652 8.85352C4.04492 8.69727 3.97412 8.50684 3.97412 8.28223ZM3.98145 1.81494C3.98145 1.58545 4.05225 1.39258 4.19385 1.23633C4.34033 1.0752 4.55029 0.994629 4.82373 0.994629C5.09717 0.994629 5.30469 1.0752 5.44629 1.23633C5.59277 1.39258 5.66602 1.58545 5.66602 1.81494C5.66602 2.03955 5.59277 2.22998 5.44629 2.38623C5.30469 2.54248 5.09717 2.62061 4.82373 2.62061C4.55029 2.62061 4.34033 2.54248 4.19385 2.38623C4.05225 2.22998 3.98145 2.03955 3.98145 1.81494Z" fill="#424242"/>
</svg>
