<svg width="16" height="16" viewBox="0 0 16 16" fill="none" xmlns="http://www.w3.org/2000/svg">
<path d="M8.00001 12.6667C8.13186 12.6667 8.26076 12.6276 8.37039 12.5544C8.48002 12.4811 8.56547 12.377 8.61593 12.2552C8.66639 12.1334 8.67959 11.9993 8.65387 11.87C8.62814 11.7407 8.56465 11.6219 8.47141 11.5287C8.37818 11.4354 8.25939 11.3719 8.13007 11.3462C8.00075 11.3205 7.86671 11.3337 7.74489 11.3842C7.62307 11.4346 7.51895 11.5201 7.4457 11.6297C7.37244 11.7393 7.33334 11.8682 7.33334 12.0001C7.33334 12.1769 7.40358 12.3465 7.52861 12.4715C7.65363 12.5965 7.8232 12.6667 8.00001 12.6667ZM11.3333 12.6667C11.4652 12.6667 11.5941 12.6276 11.7037 12.5544C11.8134 12.4811 11.8988 12.377 11.9493 12.2552C11.9997 12.1334 12.0129 11.9993 11.9872 11.87C11.9615 11.7407 11.898 11.6219 11.8047 11.5287C11.7115 11.4354 11.5927 11.3719 11.4634 11.3462C11.3341 11.3205 11.2 11.3337 11.0782 11.3842C10.9564 11.4346 10.8523 11.5201 10.779 11.6297C10.7058 11.7393 10.6667 11.8682 10.6667 12.0001C10.6667 12.1769 10.7369 12.3465 10.8619 12.4715C10.987 12.5965 11.1565 12.6667 11.3333 12.6667ZM11.3333 10.0001C11.4652 10.0001 11.5941 9.96098 11.7037 9.88773C11.8134 9.81447 11.8988 9.71035 11.9493 9.58854C11.9997 9.46672 12.0129 9.33267 11.9872 9.20335C11.9615 9.07403 11.898 8.95525 11.8047 8.86201C11.7115 8.76877 11.5927 8.70528 11.4634 8.67956C11.3341 8.65383 11.2 8.66704 11.0782 8.71749C10.9564 8.76795 10.8523 8.8534 10.779 8.96303C10.7058 9.07267 10.6667 9.20156 10.6667 9.33341C10.6667 9.51023 10.7369 9.67979 10.8619 9.80482C10.987 9.92984 11.1565 10.0001 11.3333 10.0001ZM8.00001 10.0001C8.13186 10.0001 8.26076 9.96098 8.37039 9.88773C8.48002 9.81447 8.56547 9.71035 8.61593 9.58854C8.66639 9.46672 8.67959 9.33267 8.65387 9.20335C8.62814 9.07403 8.56465 8.95525 8.47141 8.86201C8.37818 8.76877 8.25939 8.70528 8.13007 8.67956C8.00075 8.65383 7.86671 8.66704 7.74489 8.71749C7.62307 8.76795 7.51895 8.8534 7.4457 8.96303C7.37244 9.07267 7.33334 9.20156 7.33334 9.33341C7.33334 9.51023 7.40358 9.67979 7.52861 9.80482C7.65363 9.92984 7.8232 10.0001 8.00001 10.0001ZM12.6667 2.00008H12V1.33341C12 1.1566 11.9298 0.987034 11.8047 0.86201C11.6797 0.736986 11.5102 0.666748 11.3333 0.666748C11.1565 0.666748 10.987 0.736986 10.8619 0.86201C10.7369 0.987034 10.6667 1.1566 10.6667 1.33341V2.00008H5.33334V1.33341C5.33334 1.1566 5.26311 0.987034 5.13808 0.86201C5.01306 0.736986 4.84349 0.666748 4.66668 0.666748C4.48987 0.666748 4.3203 0.736986 4.19527 0.86201C4.07025 0.987034 4.00001 1.1566 4.00001 1.33341V2.00008H3.33334C2.80291 2.00008 2.2942 2.2108 1.91913 2.58587C1.54406 2.96094 1.33334 3.46965 1.33334 4.00008V13.3334C1.33334 13.8638 1.54406 14.3726 1.91913 14.7476C2.2942 15.1227 2.80291 15.3334 3.33334 15.3334H12.6667C13.1971 15.3334 13.7058 15.1227 14.0809 14.7476C14.456 14.3726 14.6667 13.8638 14.6667 13.3334V4.00008C14.6667 3.46965 14.456 2.96094 14.0809 2.58587C13.7058 2.2108 13.1971 2.00008 12.6667 2.00008ZM13.3333 13.3334C13.3333 13.5102 13.2631 13.6798 13.1381 13.8048C13.0131 13.9298 12.8435 14.0001 12.6667 14.0001H3.33334C3.15653 14.0001 2.98696 13.9298 2.86194 13.8048C2.73691 13.6798 2.66668 13.5102 2.66668 13.3334V7.33341H13.3333V13.3334ZM13.3333 6.00008H2.66668V4.00008C2.66668 3.82327 2.73691 3.6537 2.86194 3.52868C2.98696 3.40365 3.15653 3.33341 3.33334 3.33341H4.00001V4.00008C4.00001 4.17689 4.07025 4.34646 4.19527 4.47149C4.3203 4.59651 4.48987 4.66675 4.66668 4.66675C4.84349 4.66675 5.01306 4.59651 5.13808 4.47149C5.26311 4.34646 5.33334 4.17689 5.33334 4.00008V3.33341H10.6667V4.00008C10.6667 4.17689 10.7369 4.34646 10.8619 4.47149C10.987 4.59651 11.1565 4.66675 11.3333 4.66675C11.5102 4.66675 11.6797 4.59651 11.8047 4.47149C11.9298 4.34646 12 4.17689 12 4.00008V3.33341H12.6667C12.8435 3.33341 13.0131 3.40365 13.1381 3.52868C13.2631 3.6537 13.3333 3.82327 13.3333 4.00008V6.00008ZM4.66668 10.0001C4.79853 10.0001 4.92742 9.96098 5.03706 9.88773C5.14669 9.81447 5.23214 9.71035 5.2826 9.58854C5.33306 9.46672 5.34626 9.33267 5.32053 9.20335C5.29481 9.07403 5.23132 8.95525 5.13808 8.86201C5.04485 8.76877 4.92606 8.70528 4.79674 8.67956C4.66742 8.65383 4.53337 8.66704 4.41155 8.71749C4.28974 8.76795 4.18562 8.8534 4.11236 8.96303C4.03911 9.07267 4.00001 9.20156 4.00001 9.33341C4.00001 9.51023 4.07025 9.67979 4.19527 9.80482C4.3203 9.92984 4.48987 10.0001 4.66668 10.0001ZM4.66668 12.6667C4.79853 12.6667 4.92742 12.6276 5.03706 12.5544C5.14669 12.4811 5.23214 12.377 5.2826 12.2552C5.33306 12.1334 5.34626 11.9993 5.32053 11.87C5.29481 11.7407 5.23132 11.6219 5.13808 11.5287C5.04485 11.4354 4.92606 11.3719 4.79674 11.3462C4.66742 11.3205 4.53337 11.3337 4.41155 11.3842C4.28974 11.4346 4.18562 11.5201 4.11236 11.6297C4.03911 11.7393 4.00001 11.8682 4.00001 12.0001C4.00001 12.1769 4.07025 12.3465 4.19527 12.4715C4.3203 12.5965 4.48987 12.6667 4.66668 12.6667Z" fill="#229ED9"/>
</svg>
