<svg width="14" height="14" viewBox="0 0 14 14" fill="none" xmlns="http://www.w3.org/2000/svg">
<path d="M10.334 3.66683H3.66732C3.49051 3.66683 3.32094 3.73707 3.19591 3.86209C3.07089 3.98712 3.00065 4.15669 3.00065 4.3335C3.00065 4.51031 3.07089 4.67988 3.19591 4.8049C3.32094 4.92992 3.49051 5.00016 3.66732 5.00016H10.334C10.5108 5.00016 10.6804 4.92992 10.8054 4.8049C10.9304 4.67988 11.0007 4.51031 11.0007 4.3335C11.0007 4.15669 10.9304 3.98712 10.8054 3.86209C10.6804 3.73707 10.5108 3.66683 10.334 3.66683ZM10.334 6.3335H3.66732C3.49051 6.3335 3.32094 6.40373 3.19591 6.52876C3.07089 6.65378 3.00065 6.82335 3.00065 7.00016C3.00065 7.17697 3.07089 7.34654 3.19591 7.47157C3.32094 7.59659 3.49051 7.66683 3.66732 7.66683H10.334C10.5108 7.66683 10.6804 7.59659 10.8054 7.47157C10.9304 7.34654 11.0007 7.17697 11.0007 7.00016C11.0007 6.82335 10.9304 6.65378 10.8054 6.52876C10.6804 6.40373 10.5108 6.3335 10.334 6.3335ZM11.6673 0.333496H2.33398C1.80355 0.333496 1.29484 0.54421 0.919771 0.919283C0.544698 1.29436 0.333984 1.80306 0.333984 2.3335V9.00016C0.333984 9.5306 0.544698 10.0393 0.919771 10.4144C1.29484 10.7894 1.80355 11.0002 2.33398 11.0002H10.0607L12.5273 13.4735C12.5896 13.5353 12.6635 13.5842 12.7447 13.6173C12.8259 13.6505 12.9129 13.6673 13.0007 13.6668C13.0881 13.6691 13.1749 13.6508 13.254 13.6135C13.3757 13.5635 13.4799 13.4786 13.5535 13.3694C13.6271 13.2603 13.6667 13.1318 13.6673 13.0002V2.3335C13.6673 1.80306 13.4566 1.29436 13.0815 0.919283C12.7065 0.54421 12.1978 0.333496 11.6673 0.333496ZM12.334 11.3935L10.8073 9.86016C10.745 9.79838 10.6711 9.74949 10.5899 9.71632C10.5087 9.68314 10.4217 9.66632 10.334 9.66683H2.33398C2.15717 9.66683 1.9876 9.59659 1.86258 9.47157C1.73756 9.34654 1.66732 9.17697 1.66732 9.00016V2.3335C1.66732 2.15669 1.73756 1.98712 1.86258 1.86209C1.9876 1.73707 2.15717 1.66683 2.33398 1.66683H11.6673C11.8441 1.66683 12.0137 1.73707 12.1387 1.86209C12.2637 1.98712 12.334 2.15669 12.334 2.3335V11.3935Z" fill="#229ED9"/>
</svg>
