<svg width="28" height="30" viewBox="0 0 28 30" fill="none" xmlns="http://www.w3.org/2000/svg">
<path d="M14.0001 24.3334C14.2638 24.3334 14.5216 24.2552 14.7408 24.1087C14.9601 23.9622 15.131 23.7539 15.2319 23.5103C15.3328 23.2666 15.3592 22.9986 15.3078 22.7399C15.2563 22.4813 15.1294 22.2437 14.9429 22.0572C14.7564 21.8708 14.5188 21.7438 14.2602 21.6923C14.0016 21.6409 13.7335 21.6673 13.4898 21.7682C13.2462 21.8691 13.038 22.04 12.8915 22.2593C12.7449 22.4785 12.6667 22.7363 12.6667 23C12.6667 23.3537 12.8072 23.6928 13.0573 23.9429C13.3073 24.1929 13.6465 24.3334 14.0001 24.3334ZM20.6667 24.3334C20.9305 24.3334 21.1882 24.2552 21.4075 24.1087C21.6268 23.9622 21.7977 23.7539 21.8986 23.5103C21.9995 23.2666 22.0259 22.9986 21.9745 22.7399C21.923 22.4813 21.796 22.2437 21.6096 22.0572C21.4231 21.8708 21.1855 21.7438 20.9269 21.6923C20.6682 21.6409 20.4001 21.6673 20.1565 21.7682C19.9129 21.8691 19.7046 22.04 19.5581 22.2593C19.4116 22.4785 19.3334 22.7363 19.3334 23C19.3334 23.3537 19.4739 23.6928 19.7239 23.9429C19.974 24.1929 20.3131 24.3334 20.6667 24.3334ZM20.6667 19C20.9305 19 21.1882 18.9218 21.4075 18.7753C21.6268 18.6288 21.7977 18.4206 21.8986 18.177C21.9995 17.9333 22.0259 17.6652 21.9745 17.4066C21.923 17.1479 21.796 16.9104 21.6096 16.7239C21.4231 16.5374 21.1855 16.4104 20.9269 16.359C20.6682 16.3075 20.4001 16.334 20.1565 16.4349C19.9129 16.5358 19.7046 16.7067 19.5581 16.9259C19.4116 17.1452 19.3334 17.403 19.3334 17.6667C19.3334 18.0203 19.4739 18.3595 19.7239 18.6095C19.974 18.8596 20.3131 19 20.6667 19ZM14.0001 19C14.2638 19 14.5216 18.9218 14.7408 18.7753C14.9601 18.6288 15.131 18.4206 15.2319 18.177C15.3328 17.9333 15.3592 17.6652 15.3078 17.4066C15.2563 17.1479 15.1294 16.9104 14.9429 16.7239C14.7564 16.5374 14.5188 16.4104 14.2602 16.359C14.0016 16.3075 13.7335 16.334 13.4898 16.4349C13.2462 16.5358 13.038 16.7067 12.8915 16.9259C12.7449 17.1452 12.6667 17.403 12.6667 17.6667C12.6667 18.0203 12.8072 18.3595 13.0573 18.6095C13.3073 18.8596 13.6465 19 14.0001 19ZM23.3334 3.00004H22.0001V1.66671C22.0001 1.31309 21.8596 0.973947 21.6096 0.723898C21.3595 0.47385 21.0204 0.333374 20.6667 0.333374C20.3131 0.333374 19.974 0.47385 19.7239 0.723898C19.4739 0.973947 19.3334 1.31309 19.3334 1.66671V3.00004H8.66675V1.66671C8.66675 1.31309 8.52627 0.973947 8.27622 0.723898C8.02618 0.47385 7.68704 0.333374 7.33342 0.333374C6.97979 0.333374 6.64065 0.47385 6.39061 0.723898C6.14056 0.973947 6.00008 1.31309 6.00008 1.66671V3.00004H4.66675C3.60588 3.00004 2.58847 3.42147 1.83832 4.17161C1.08818 4.92176 0.666748 5.93917 0.666748 7.00004V25.6667C0.666748 26.7276 1.08818 27.745 1.83832 28.4951C2.58847 29.2453 3.60588 29.6667 4.66675 29.6667H23.3334C24.3943 29.6667 25.4117 29.2453 26.1618 28.4951C26.912 27.745 27.3334 26.7276 27.3334 25.6667V7.00004C27.3334 5.93917 26.912 4.92176 26.1618 4.17161C25.4117 3.42147 24.3943 3.00004 23.3334 3.00004ZM24.6667 25.6667C24.6667 26.0203 24.5263 26.3595 24.2762 26.6095C24.0262 26.8596 23.687 27 23.3334 27H4.66675C4.31313 27 3.97399 26.8596 3.72394 26.6095C3.47389 26.3595 3.33341 26.0203 3.33341 25.6667V13.6667H24.6667V25.6667ZM24.6667 11H3.33341V7.00004C3.33341 6.64642 3.47389 6.30728 3.72394 6.05723C3.97399 5.80718 4.31313 5.66671 4.66675 5.66671H6.00008V7.00004C6.00008 7.35366 6.14056 7.6928 6.39061 7.94285C6.64065 8.1929 6.97979 8.33337 7.33342 8.33337C7.68704 8.33337 8.02618 8.1929 8.27622 7.94285C8.52627 7.6928 8.66675 7.35366 8.66675 7.00004V5.66671H19.3334V7.00004C19.3334 7.35366 19.4739 7.6928 19.7239 7.94285C19.974 8.1929 20.3131 8.33337 20.6667 8.33337C21.0204 8.33337 21.3595 8.1929 21.6096 7.94285C21.8596 7.6928 22.0001 7.35366 22.0001 7.00004V5.66671H23.3334C23.687 5.66671 24.0262 5.80718 24.2762 6.05723C24.5263 6.30728 24.6667 6.64642 24.6667 7.00004V11ZM7.33342 19C7.59712 19 7.85491 18.9218 8.07417 18.7753C8.29344 18.6288 8.46434 18.4206 8.56525 18.177C8.66617 17.9333 8.69258 17.6652 8.64113 17.4066C8.58968 17.1479 8.46269 16.9104 8.27622 16.7239C8.08975 16.5374 7.85218 16.4104 7.59354 16.359C7.33489 16.3075 7.06681 16.334 6.82317 16.4349C6.57954 16.5358 6.3713 16.7067 6.22479 16.9259C6.07828 17.1452 6.00008 17.403 6.00008 17.6667C6.00008 18.0203 6.14056 18.3595 6.39061 18.6095C6.64065 18.8596 6.97979 19 7.33342 19ZM7.33342 24.3334C7.59712 24.3334 7.85491 24.2552 8.07417 24.1087C8.29344 23.9622 8.46434 23.7539 8.56525 23.5103C8.66617 23.2666 8.69258 22.9986 8.64113 22.7399C8.58968 22.4813 8.46269 22.2437 8.27622 22.0572C8.08975 21.8708 7.85218 21.7438 7.59354 21.6923C7.33489 21.6409 7.06681 21.6673 6.82317 21.7682C6.57954 21.8691 6.3713 22.04 6.22479 22.2593C6.07828 22.4785 6.00008 22.7363 6.00008 23C6.00008 23.3537 6.14056 23.6928 6.39061 23.9429C6.64065 24.1929 6.97979 24.3334 7.33342 24.3334Z" fill="#229ED9"/>
</svg>
