<svg width="28" height="28" viewBox="0 0 28 28" fill="none" xmlns="http://www.w3.org/2000/svg">
<path d="M7.33342 16.6666H10.0001C10.3537 16.6666 10.6928 16.5262 10.9429 16.2761C11.1929 16.0261 11.3334 15.6869 11.3334 15.3333C11.3334 14.9797 11.1929 14.6405 10.9429 14.3905C10.6928 14.1404 10.3537 14 10.0001 14H7.33342C6.97979 14 6.64065 14.1404 6.39061 14.3905C6.14056 14.6405 6.00008 14.9797 6.00008 15.3333C6.00008 15.6869 6.14056 16.0261 6.39061 16.2761C6.64065 16.5262 6.97979 16.6666 7.33342 16.6666ZM15.3334 19.3333H7.33342C6.97979 19.3333 6.64065 19.4738 6.39061 19.7238C6.14056 19.9739 6.00008 20.313 6.00008 20.6666C6.00008 21.0202 6.14056 21.3594 6.39061 21.6094C6.64065 21.8595 6.97979 22 7.33342 22H15.3334C15.687 22 16.0262 21.8595 16.2762 21.6094C16.5263 21.3594 16.6667 21.0202 16.6667 20.6666C16.6667 20.313 16.5263 19.9739 16.2762 19.7238C16.0262 19.4738 15.687 19.3333 15.3334 19.3333ZM23.3334 0.666626H4.66675C3.60588 0.666626 2.58847 1.08805 1.83832 1.8382C1.08818 2.58834 0.666748 3.60576 0.666748 4.66663V23.3333C0.666748 24.3942 1.08818 25.4116 1.83832 26.1617C2.58847 26.9119 3.60588 27.3333 4.66675 27.3333H23.3334C24.3943 27.3333 25.4117 26.9119 26.1618 26.1617C26.912 25.4116 27.3334 24.3942 27.3334 23.3333V4.66663C27.3334 3.60576 26.912 2.58834 26.1618 1.8382C25.4117 1.08805 24.3943 0.666626 23.3334 0.666626ZM16.6667 3.33329V7.71996L14.6534 6.59996C14.4507 6.48293 14.2208 6.42133 13.9867 6.42133C13.7527 6.42133 13.5228 6.48293 13.3201 6.59996L11.3334 7.71996V3.33329H16.6667ZM24.6667 23.3333C24.6667 23.6869 24.5263 24.0261 24.2762 24.2761C24.0262 24.5262 23.687 24.6666 23.3334 24.6666H4.66675C4.31313 24.6666 3.97399 24.5262 3.72394 24.2761C3.47389 24.0261 3.33341 23.6869 3.33341 23.3333V4.66663C3.33341 4.313 3.47389 3.97387 3.72394 3.72382C3.97399 3.47377 4.31313 3.33329 4.66675 3.33329H8.66675V9.99996C8.66815 10.2326 8.73043 10.4609 8.84738 10.6621C8.96433 10.8632 9.1319 11.0303 9.33342 11.1466C9.53611 11.2636 9.76603 11.3253 10.0001 11.3253C10.2341 11.3253 10.4641 11.2636 10.6667 11.1466L14.0001 9.29329L17.3467 11.16C17.546 11.2729 17.771 11.3326 18.0001 11.3333C18.3537 11.3333 18.6928 11.1928 18.9429 10.9428C19.1929 10.6927 19.3334 10.3536 19.3334 9.99996V3.33329H23.3334C23.687 3.33329 24.0262 3.47377 24.2762 3.72382C24.5263 3.97387 24.6667 4.313 24.6667 4.66663V23.3333Z" fill="#229ED9"/>
</svg>
