<svg fill="#fff" xmlns="http://www.w3.org/2000/svg"  viewBox="0 0 50 50" width="50px" height="50px"><path d="M 44.984375 6.96875 C 44.453125 6.984375 43.953125 7.203125 43.585938 7.585938 L 25 26.171875 L 6.414063 7.585938 C 6.035156 7.199219 5.519531 6.980469 4.976563 6.980469 C 4.164063 6.980469 3.433594 7.476563 3.128906 8.230469 C 2.820313 8.984375 3.003906 9.847656 3.585938 10.414063 L 25 31.828125 L 46.414063 10.414063 C 47.007813 9.84375 47.195313 8.964844 46.875 8.203125 C 46.558594 7.441406 45.808594 6.953125 44.984375 6.96875 Z M 44.984375 19.96875 C 44.453125 19.984375 43.953125 20.203125 43.585938 20.585938 L 25 39.171875 L 6.414063 20.585938 C 6.035156 20.199219 5.519531 19.980469 4.976563 19.980469 C 4.164063 19.980469 3.433594 20.476563 3.128906 21.230469 C 2.820313 21.984375 3.003906 22.847656 3.585938 23.414063 L 25 44.828125 L 46.414063 23.414063 C 47.007813 22.84375 47.195313 21.964844 46.875 21.203125 C 46.558594 20.441406 45.808594 19.953125 44.984375 19.96875 Z"/></svg>