<svg width="11" height="9" viewBox="0 0 11 9" fill="none" xmlns="http://www.w3.org/2000/svg">
<path d="M2.10744 0.944533C1.92699 0.758992 1.68021 0.652737 1.42141 0.649142C1.16261 0.645548 0.912986 0.744909 0.727445 0.925367C0.541904 1.10582 0.435648 1.3526 0.432054 1.6114C0.42846 1.8702 0.52782 2.11983 0.708278 2.30537L2.95078 4.49995L0.708278 6.69453C0.618455 6.78362 0.54716 6.88961 0.498507 7.0064C0.449854 7.12318 0.424805 7.24844 0.424805 7.37495C0.424805 7.50146 0.449854 7.62672 0.498507 7.7435C0.54716 7.86028 0.618455 7.96628 0.708278 8.05537C0.797368 8.14519 0.90336 8.21648 1.02014 8.26514C1.13692 8.31379 1.26218 8.33884 1.38869 8.33884C1.51521 8.33884 1.64047 8.31379 1.75725 8.26514C1.87403 8.21648 1.98002 8.14519 2.06911 8.05537L4.94411 5.18037C5.03393 5.09128 5.10523 4.98528 5.15388 4.8685C5.20254 4.75172 5.22758 4.62646 5.22758 4.49995C5.22758 4.37344 5.20254 4.24818 5.15388 4.1314C5.10523 4.01461 5.03393 3.90862 4.94411 3.81953L2.10744 0.944533ZM10.2533 3.81953L7.37828 0.944533C7.19782 0.764075 6.95307 0.662695 6.69786 0.662695C6.44266 0.662695 6.1979 0.764075 6.01744 0.944533C5.83699 1.12499 5.73561 1.36974 5.73561 1.62495C5.73561 1.88016 5.83699 2.12491 6.01744 2.30537L8.22161 4.49995L6.01744 6.69453C5.92762 6.78362 5.85633 6.88961 5.80767 7.0064C5.75902 7.12318 5.73397 7.24844 5.73397 7.37495C5.73397 7.50146 5.75902 7.62672 5.80767 7.7435C5.85633 7.86028 5.92762 7.96628 6.01744 8.05537C6.10653 8.14519 6.21253 8.21648 6.32931 8.26514C6.44609 8.31379 6.57135 8.33884 6.69786 8.33884C6.82437 8.33884 6.94963 8.31379 7.06641 8.26514C7.1832 8.21648 7.28919 8.14519 7.37828 8.05537L10.2533 5.18037C10.3457 5.09383 10.42 4.98986 10.4719 4.87444C10.5239 4.75903 10.5525 4.63446 10.5561 4.50794C10.5596 4.38141 10.5381 4.25544 10.4927 4.13728C10.4473 4.01912 10.379 3.91113 10.2916 3.81953H10.2533Z" fill="#424242"/>
</svg>
