<svg width="18" height="18" viewBox="0 0 18 18" fill="none" xmlns="http://www.w3.org/2000/svg">
<path d="M10.7644 7.63L10.6713 8.86857H9.46379V13.0173H7.87449V8.86857H7.06982V7.63H7.87449V6.70124V6.43302C7.87449 6.43302 7.81762 5.06196 9.46379 4.98785C10.2637 4.95209 10.9301 5.13241 10.9301 5.13241L10.761 6.35007C10.761 6.35007 9.46379 5.94806 9.46379 6.73162V7.62979H10.7644V7.63Z" fill="#212121"/>
<path d="M8.99978 18C4.03756 18 0 13.9624 0 8.99978C0 4.03713 4.03756 0 8.99978 0C13.9624 0 18 4.03713 18 8.99978C18 13.9624 13.9624 18 8.99978 18ZM8.99978 1.23641C4.71899 1.23641 1.23641 4.71899 1.23641 8.99978C1.23641 13.2806 4.71899 16.7634 8.99978 16.7634C13.281 16.7634 16.7634 13.2806 16.7634 8.99978C16.7634 4.71899 13.281 1.23641 8.99978 1.23641Z" fill="#212121"/>
</svg>
