<svg width="33" height="32" viewBox="0 0 33 32" fill="none" xmlns="http://www.w3.org/2000/svg">
<path d="M19.994 13.5644L19.8286 15.7663H17.6818V23.1418H14.8564V15.7663H13.4259V13.5644H14.8564V11.9133V11.4364C14.8564 11.4364 14.7553 8.99899 17.6818 8.86723C19.1039 8.80365 20.2885 9.12423 20.2885 9.12423L19.9879 11.289C19.9879 11.289 17.6818 10.5743 17.6818 11.9673V13.564H19.994V13.5644Z" fill="white"/>
<path d="M16.8568 32C8.03509 32 0.857208 24.8221 0.857208 15.9996C0.857208 7.17712 8.03509 0 16.8568 0C25.6793 0 32.8572 7.17712 32.8572 15.9996C32.8572 24.8221 25.6793 32 16.8568 32ZM16.8568 2.19806C9.24653 2.19806 3.05527 8.38932 3.05527 15.9996C3.05527 23.6099 9.24653 29.8016 16.8568 29.8016C24.4679 29.8016 30.6588 23.6099 30.6588 15.9996C30.6588 8.38932 24.4679 2.19806 16.8568 2.19806Z" fill="white"/>
</svg>
