<svg width="14" height="12" viewBox="0 0 14 12" fill="none" xmlns="http://www.w3.org/2000/svg">
<path d="M11.6667 0.666748H2.33337C1.80294 0.666748 1.29423 0.877462 0.919161 1.25253C0.544088 1.62761 0.333374 2.13631 0.333374 2.66675V9.33341C0.333374 9.86385 0.544088 10.3726 0.919161 10.7476C1.29423 11.1227 1.80294 11.3334 2.33337 11.3334H11.6667C12.1971 11.3334 12.7058 11.1227 13.0809 10.7476C13.456 10.3726 13.6667 9.86385 13.6667 9.33341V2.66675C13.6667 2.13631 13.456 1.62761 13.0809 1.25253C12.7058 0.877462 12.1971 0.666748 11.6667 0.666748ZM11.3934 2.00008L7.47337 5.92008C7.4114 5.98257 7.33767 6.03216 7.25643 6.06601C7.17519 6.09985 7.08805 6.11728 7.00004 6.11728C6.91203 6.11728 6.8249 6.09985 6.74366 6.06601C6.66242 6.03216 6.58868 5.98257 6.52671 5.92008L2.60671 2.00008H11.3934ZM12.3334 9.33341C12.3334 9.51023 12.2631 9.6798 12.1381 9.80482C12.0131 9.92984 11.8435 10.0001 11.6667 10.0001H2.33337C2.15656 10.0001 1.98699 9.92984 1.86197 9.80482C1.73695 9.6798 1.66671 9.51023 1.66671 9.33341V2.94008L5.58671 6.86008C5.96171 7.23462 6.47004 7.44499 7.00004 7.44499C7.53004 7.44499 8.03837 7.23462 8.41337 6.86008L12.3334 2.94008V9.33341Z" fill="white" fill-opacity="0.8"/>
</svg>
