<svg width="28" height="24" viewBox="0 0 28 24" fill="none" xmlns="http://www.w3.org/2000/svg">
<path d="M24.667 13.5733V10.6667C24.667 7.83769 23.5432 5.12458 21.5428 3.12419C19.5424 1.12381 16.8293 0 14.0003 0C11.1713 0 8.45824 1.12381 6.45785 3.12419C4.45747 5.12458 3.33366 7.83769 3.33366 10.6667V13.5733C2.55559 13.8484 1.88166 14.3574 1.40424 15.0306C0.92683 15.7037 0.669312 16.5081 0.666992 17.3333V20C0.666992 21.0609 1.08842 22.0783 1.83857 22.8284C2.58871 23.5786 3.60613 24 4.66699 24H8.66699C9.02061 24 9.35975 23.8595 9.6098 23.6095C9.85985 23.3594 10.0003 23.0203 10.0003 22.6667V14.6667C10.0003 14.313 9.85985 13.9739 9.6098 13.7239C9.35975 13.4738 9.02061 13.3333 8.66699 13.3333H6.00033V10.6667C6.00033 8.54494 6.84318 6.5101 8.34347 5.00981C9.84376 3.50952 11.8786 2.66667 14.0003 2.66667C16.1221 2.66667 18.1569 3.50952 19.6572 5.00981C21.1575 6.5101 22.0003 8.54494 22.0003 10.6667V13.3333H19.3337C18.98 13.3333 18.6409 13.4738 18.3909 13.7239C18.1408 13.9739 18.0003 14.313 18.0003 14.6667V22.6667C18.0003 23.0203 18.1408 23.3594 18.3909 23.6095C18.6409 23.8595 18.98 24 19.3337 24H23.3337C24.3945 24 25.4119 23.5786 26.1621 22.8284C26.9122 22.0783 27.3337 21.0609 27.3337 20V17.3333C27.3313 16.5081 27.0738 15.7037 26.5964 15.0306C26.119 14.3574 25.4451 13.8484 24.667 13.5733ZM7.33366 16V21.3333H4.66699C4.31337 21.3333 3.97423 21.1929 3.72418 20.9428C3.47413 20.6928 3.33366 20.3536 3.33366 20V17.3333C3.33366 16.9797 3.47413 16.6406 3.72418 16.3905C3.97423 16.1405 4.31337 16 4.66699 16H7.33366ZM24.667 20C24.667 20.3536 24.5265 20.6928 24.2765 20.9428C24.0264 21.1929 23.6873 21.3333 23.3337 21.3333H20.667V16H23.3337C23.6873 16 24.0264 16.1405 24.2765 16.3905C24.5265 16.6406 24.667 16.9797 24.667 17.3333V20Z" fill="#229ED9"/>
</svg>
