<svg width="32" height="32" viewBox="0 0 32 32" fill="none" xmlns="http://www.w3.org/2000/svg">
<path d="M22.9489 11.1952C22.762 10.7138 22.5104 10.3043 22.1036 9.89644C21.6953 9.48931 21.2867 9.23768 20.8041 9.05039C20.3372 8.86999 19.8041 8.74552 19.0239 8.71028C18.2422 8.67389 17.9917 8.66623 16.0001 8.66623C14.0084 8.66623 13.7576 8.67428 12.9759 8.71028C12.1957 8.74552 11.6629 8.86999 11.1964 9.05039C10.7131 9.23768 10.3048 9.48931 9.89612 9.89644C9.48899 10.304 9.2385 10.7138 9.0516 11.1952C8.87044 11.6621 8.74558 12.1956 8.71034 12.9758C8.67434 13.7579 8.66553 14.0076 8.66553 15.9996C8.66553 17.9916 8.67434 18.2413 8.71034 19.0234C8.74558 19.8048 8.87044 20.3375 9.0516 20.8036C9.2385 21.2862 9.48937 21.6957 9.89612 22.1028C10.3044 22.5107 10.7131 22.7619 11.1964 22.9496C11.6633 23.13 12.1957 23.2545 12.9759 23.2905C13.7576 23.3253 14.0088 23.3345 16.0001 23.3345C17.9913 23.3345 18.2422 23.3253 19.0239 23.2905C19.8041 23.2545 20.3376 23.13 20.8041 22.9496C21.2867 22.7619 21.695 22.5107 22.1036 22.1028C22.5107 21.6957 22.762 21.2862 22.9489 20.8036C23.1316 20.3371 23.2534 19.8048 23.2894 19.0234C23.3262 18.2413 23.3342 17.9916 23.3342 15.9996C23.3342 14.0076 23.3262 13.7579 23.2894 12.9758C23.2534 12.1956 23.1312 11.6621 22.9489 11.1952ZM21.9703 18.9637C21.9374 19.678 21.8179 20.0667 21.7168 20.3256C21.5843 20.6681 21.4257 20.9116 21.1683 21.1679C20.9109 21.4249 20.6677 21.5838 20.3253 21.7179C20.0657 21.8182 19.6788 21.9366 18.9637 21.9695C18.1901 22.0055 17.9584 22.0124 16.0001 22.0124C14.041 22.0124 13.8089 22.0051 13.0364 21.9695C12.3205 21.9366 11.9337 21.8178 11.674 21.7179C11.332 21.5838 11.0884 21.4249 10.8318 21.1679C10.5752 20.9116 10.4159 20.6677 10.2826 20.3256C10.183 20.0667 10.0635 19.6784 10.0298 18.9637C9.99455 18.1896 9.98804 17.9583 9.98804 15.9996C9.98804 14.0417 9.99494 13.8096 10.0298 13.0371C10.0635 12.322 10.183 11.9333 10.2826 11.6747C10.4159 11.3327 10.5744 11.0876 10.8318 10.8317C11.0884 10.5751 11.3324 10.4154 11.674 10.2829C11.9337 10.1818 12.3205 10.0627 13.0364 10.0301C13.81 9.99526 14.041 9.9876 16.0001 9.9876C17.9584 9.9876 18.1905 9.99564 18.9637 10.0301C19.6788 10.0627 20.0657 10.1818 20.3253 10.2829C20.6681 10.4154 20.9109 10.5751 21.1683 10.8317C21.4257 11.0876 21.5843 11.3331 21.7168 11.6747C21.8179 11.9333 21.9374 12.3216 21.9703 13.0371C22.0048 13.81 22.0121 14.0417 22.0121 15.9996C22.0121 17.9583 22.0048 18.1896 21.9703 18.9637ZM16.0001 12.2347C13.9188 12.2347 12.2336 13.9191 12.2336 15.9996C12.2336 18.0801 13.9188 19.7661 16.0001 19.7661C18.0805 19.7661 19.7658 18.0801 19.7658 15.9996C19.7658 13.9191 18.0805 12.2347 16.0001 12.2347ZM16.0001 18.4451C14.6492 18.4451 13.5553 17.3501 13.5553 15.9996C13.5553 14.6499 14.6488 13.5549 16.0001 13.5549C17.3502 13.5549 18.444 14.6495 18.444 15.9996C18.444 17.3497 17.3502 18.4451 16.0001 18.4451ZM20.7953 12.0857C20.7953 12.571 20.4012 12.9658 19.9147 12.9658C19.4283 12.9658 19.035 12.571 19.035 12.0857C19.035 11.5989 19.4283 11.2044 19.9147 11.2044C20.4012 11.2044 20.7953 11.5993 20.7953 12.0857ZM15.9993 0C7.17679 0 6.10352e-05 7.17712 6.10352e-05 15.9996C6.10352e-05 24.8221 7.17679 32 15.9993 32C24.8226 32 32.0001 24.8221 32.0001 15.9996C32.0001 7.17712 24.8226 0 15.9993 0ZM15.9993 29.8016C8.38939 29.8016 2.1985 23.6099 2.1985 15.9996C2.1985 8.38932 8.38939 2.19806 15.9993 2.19806C23.61 2.19806 29.8016 8.38932 29.8016 15.9996C29.8016 23.6099 23.61 29.8016 15.9993 29.8016Z" fill="white"/>
</svg>
