<svg width="18" height="18" viewBox="0 0 18 18" fill="none" xmlns="http://www.w3.org/2000/svg">
<path d="M12.9092 6.29731C12.8041 6.0265 12.6625 5.79619 12.4337 5.56675C12.2041 5.33774 11.9742 5.19619 11.7028 5.09084C11.4401 4.98937 11.1402 4.91935 10.7014 4.89953C10.2617 4.87907 10.1208 4.87476 9.00049 4.87476C7.8802 4.87476 7.73909 4.87928 7.29937 4.89953C6.86052 4.91935 6.56085 4.98937 6.29844 5.09084C6.02656 5.19619 5.7969 5.33774 5.56702 5.56675C5.33801 5.79598 5.19711 6.0265 5.09198 6.29731C4.99008 6.55993 4.91984 6.86003 4.90002 7.29889C4.87977 7.73881 4.87481 7.87928 4.87481 8.99978C4.87481 10.1203 4.87977 10.2608 4.90002 10.7007C4.91984 11.1402 4.99008 11.4399 5.09198 11.702C5.19711 11.9735 5.33823 12.2038 5.56702 12.4328C5.79668 12.6623 6.02656 12.8036 6.29844 12.9092C6.56106 13.0106 6.86052 13.0806 7.29937 13.1009C7.73909 13.1205 7.88042 13.1257 9.00049 13.1257C10.1206 13.1257 10.2617 13.1205 10.7014 13.1009C11.1402 13.0806 11.4403 13.0106 11.7028 12.9092C11.9742 12.8036 12.2039 12.6623 12.4337 12.4328C12.6627 12.2038 12.8041 11.9735 12.9092 11.702C13.012 11.4396 13.0805 11.1402 13.1007 10.7007C13.1214 10.2608 13.1259 10.1203 13.1259 8.99978C13.1259 7.87928 13.1214 7.73881 13.1007 7.29889C13.0805 6.86003 13.0118 6.55993 12.9092 6.29731ZM12.3588 10.6671C12.3402 11.0689 12.273 11.2875 12.2161 11.4332C12.1416 11.6258 12.0524 11.7628 11.9076 11.9069C11.7629 12.0515 11.6261 12.1409 11.4334 12.2163C11.2874 12.2727 11.0698 12.3393 10.6676 12.3578C10.2324 12.3781 10.102 12.382 9.00049 12.382C7.89851 12.382 7.76796 12.3779 7.33341 12.3578C6.93076 12.3393 6.71316 12.2725 6.56709 12.2163C6.37471 12.1409 6.23769 12.0515 6.09334 11.9069C5.949 11.7628 5.85937 11.6256 5.7844 11.4332C5.72839 11.2875 5.66117 11.0691 5.64221 10.6671C5.62239 10.2317 5.61873 10.1015 5.61873 8.99978C5.61873 7.89846 5.62261 7.7679 5.64221 7.33336C5.66117 6.93113 5.72839 6.71246 5.7844 6.56704C5.85937 6.37465 5.94857 6.23677 6.09334 6.09285C6.23769 5.94851 6.37492 5.85867 6.56709 5.78413C6.71316 5.72725 6.93076 5.66025 7.33341 5.64194C7.7686 5.62233 7.89851 5.61802 9.00049 5.61802C10.102 5.61802 10.2326 5.62255 10.6676 5.64194C11.0698 5.66025 11.2874 5.72725 11.4334 5.78413C11.6263 5.85867 11.7629 5.94851 11.9076 6.09285C12.0524 6.23677 12.1416 6.37487 12.2161 6.56704C12.273 6.71246 12.3402 6.93092 12.3588 7.33336C12.3782 7.76811 12.3822 7.89846 12.3822 8.99978C12.3822 10.1015 12.3782 10.2317 12.3588 10.6671ZM9.00049 6.88201C7.82979 6.88201 6.88185 7.82951 6.88185 8.99978C6.88185 10.1701 7.82979 11.1184 9.00049 11.1184C10.1708 11.1184 11.1187 10.1701 11.1187 8.99978C11.1187 7.82951 10.1708 6.88201 9.00049 6.88201ZM9.00049 10.3754C8.24063 10.3754 7.62533 9.75943 7.62533 8.99978C7.62533 8.24057 8.24042 7.62463 9.00049 7.62463C9.75991 7.62463 10.3752 8.24036 10.3752 8.99978C10.3752 9.75921 9.75991 10.3754 9.00049 10.3754ZM11.6978 6.7982C11.6978 7.07117 11.4761 7.29328 11.2025 7.29328C10.9289 7.29328 10.7076 7.07117 10.7076 6.7982C10.7076 6.52438 10.9289 6.30248 11.2025 6.30248C11.4761 6.30248 11.6978 6.5246 11.6978 6.7982ZM9.00006 0C4.0374 0 0.000488281 4.03713 0.000488281 8.99978C0.000488281 13.9624 4.0374 18 9.00006 18C13.9631 18 18.0005 13.9624 18.0005 8.99978C18.0005 4.03713 13.9631 0 9.00006 0ZM9.00006 16.7634C4.71948 16.7634 1.23711 13.2806 1.23711 8.99978C1.23711 4.71899 4.71948 1.23641 9.00006 1.23641C13.2811 1.23641 16.7639 4.71899 16.7639 8.99978C16.7639 13.2806 13.2811 16.7634 9.00006 16.7634Z" fill="#212121"/>
</svg>
