<svg width="33" height="32" viewBox="0 0 33 32" fill="none" xmlns="http://www.w3.org/2000/svg">
<path d="M16.7852 0C7.9628 0 0.785767 7.17741 0.785767 15.9994C0.785767 24.8218 7.9628 32 16.7852 32C25.6076 32 32.7858 24.8218 32.7858 15.9994C32.7858 7.17741 25.6076 0 16.7852 0ZM16.7852 29.8016C9.17499 29.8016 2.98418 23.61 2.98418 15.9994C2.98418 8.38922 9.17499 2.19842 16.7852 2.19842C24.3958 2.19842 30.5874 8.38922 30.5874 15.9994C30.5874 23.61 24.3958 29.8016 16.7852 29.8016Z" fill="white" />
<path d="M13.4704 13.6455H10.8855V21.9608H13.4704V13.6455Z" fill="white" />
<path d="M12.1945 10.0396C11.36 10.0396 10.8173 10.601 10.8173 11.3318C10.8173 12.0465 11.3443 12.6244 12.1608 12.6244C13.0276 12.6244 13.5549 12.0465 13.5549 11.3318C13.5377 10.6006 13.0276 10.0396 12.1945 10.0396Z" fill="white" />
<path d="M19.7768 13.4575C18.3842 13.4575 17.5508 14.2568 17.2099 14.7999H17.1582L17.0391 13.6452H14.7959C14.8288 14.3924 14.8633 15.2607 14.8633 16.2978V21.9605H17.4482V17.165C17.4482 16.9271 17.4646 16.6889 17.5336 16.5185C17.7201 16.0428 18.1452 15.5495 18.8595 15.5495C19.7948 15.5495 20.1698 16.281 20.1698 17.3526V21.9605H22.7542V17.0466C22.7539 14.5973 21.4792 13.4575 19.7768 13.4575Z" fill="white" />
</svg>
