<svg width="18" height="18" viewBox="0 0 18 18" fill="none" xmlns="http://www.w3.org/2000/svg">
<path d="M9.00017 0C4.03757 0 0.000488281 4.03729 0.000488281 8.99968C0.000488281 13.9623 4.03757 18 9.00017 18C13.9628 18 18.0005 13.9623 18.0005 8.99968C18.0005 4.03729 13.9628 0 9.00017 0ZM9.00017 16.7634C4.71943 16.7634 1.2371 13.2806 1.2371 8.99968C1.2371 4.71894 4.71943 1.23661 9.00017 1.23661C13.2811 1.23661 16.7639 4.71894 16.7639 8.99968C16.7639 13.2806 13.2811 16.7634 9.00017 16.7634Z" fill="#212121"/>
<path d="M7.13563 7.67554H5.68164V12.3529H7.13563V7.67554Z" fill="#212121"/>
<path d="M6.41802 5.64722C5.94859 5.64722 5.64331 5.96305 5.64331 6.3741C5.64331 6.77611 5.93975 7.1012 6.39906 7.1012C6.8866 7.1012 7.18326 6.77611 7.18326 6.3741C7.17356 5.96283 6.8866 5.64722 6.41802 5.64722Z" fill="#212121"/>
<path d="M10.6829 7.56982C9.89954 7.56982 9.43074 8.01944 9.239 8.32493H9.20992L9.14292 7.67539H7.8811C7.89963 8.09571 7.91902 8.5841 7.91902 9.16751V12.3527H9.37301V9.65526C9.37301 9.52147 9.38227 9.38747 9.42105 9.2916C9.52597 9.02403 9.7651 8.74654 10.1669 8.74654C10.693 8.74654 10.9039 9.15803 10.9039 9.76082V12.3527H12.3577V9.58869C12.3575 8.21097 11.6405 7.56982 10.6829 7.56982Z" fill="#212121"/>
</svg>
