<svg width="22" height="28" viewBox="0 0 22 28" fill="none" xmlns="http://www.w3.org/2000/svg">
<path d="M10.9997 0.666656C8.1707 0.666656 5.45759 1.79046 3.4572 3.79085C1.45681 5.79124 0.333008 8.50435 0.333008 11.3333C0.333008 18.5333 9.73301 26.6667 10.133 27.0133C10.3745 27.2199 10.6819 27.3334 10.9997 27.3334C11.3175 27.3334 11.6248 27.2199 11.8663 27.0133C12.333 26.6667 21.6663 18.5333 21.6663 11.3333C21.6663 8.50435 20.5425 5.79124 18.5421 3.79085C16.5418 1.79046 13.8286 0.666656 10.9997 0.666656ZM10.9997 24.2C8.15967 21.5333 2.99967 15.7867 2.99967 11.3333C2.99967 9.21159 3.84253 7.17676 5.34282 5.67647C6.84311 4.17618 8.87794 3.33332 10.9997 3.33332C13.1214 3.33332 15.1562 4.17618 16.6565 5.67647C18.1568 7.17676 18.9997 9.21159 18.9997 11.3333C18.9997 15.7867 13.8397 21.5467 10.9997 24.2ZM10.9997 5.99999C9.94484 5.99999 8.9137 6.31278 8.03663 6.89882C7.15957 7.48485 6.47598 8.31781 6.07232 9.29235C5.66865 10.2669 5.56303 11.3392 5.76882 12.3738C5.97461 13.4084 6.48256 14.3587 7.22844 15.1046C7.97432 15.8504 8.92463 16.3584 9.95919 16.5642C10.9938 16.77 12.0661 16.6643 13.0407 16.2607C14.0152 15.857 14.8481 15.1734 15.4342 14.2964C16.0202 13.4193 16.333 12.3882 16.333 11.3333C16.333 9.91884 15.7711 8.56228 14.7709 7.56209C13.7707 6.56189 12.4142 5.99999 10.9997 5.99999ZM10.9997 14C10.4723 14 9.95669 13.8436 9.51815 13.5506C9.07962 13.2576 8.73783 12.8411 8.53599 12.3538C8.33416 11.8665 8.28135 11.3304 8.38425 10.8131C8.48714 10.2958 8.74112 9.82065 9.11406 9.44771C9.487 9.07477 9.96215 8.82079 10.4794 8.7179C10.9967 8.615 11.5329 8.66781 12.0202 8.86964C12.5074 9.07148 12.9239 9.41327 13.2169 9.8518C13.5099 10.2903 13.6663 10.8059 13.6663 11.3333C13.6663 12.0406 13.3854 12.7188 12.8853 13.2189C12.3852 13.719 11.7069 14 10.9997 14Z" fill="#229ED9"/>
</svg>
