<svg width="12" height="14" viewBox="0 0 12 14" fill="none" xmlns="http://www.w3.org/2000/svg">
<path d="M6.00008 0.333252C4.58559 0.333252 3.22904 0.895155 2.22885 1.89535C1.22865 2.89554 0.666748 4.2521 0.666748 5.66659C0.666748 9.26659 5.36675 13.3333 5.56675 13.5066C5.6875 13.6099 5.84118 13.6666 6.00008 13.6666C6.15898 13.6666 6.31266 13.6099 6.43341 13.5066C6.66675 13.3333 11.3334 9.26659 11.3334 5.66659C11.3334 4.2521 10.7715 2.89554 9.77132 1.89535C8.77112 0.895155 7.41457 0.333252 6.00008 0.333252ZM6.00008 12.0999C4.58008 10.7666 2.00008 7.89325 2.00008 5.66659C2.00008 4.60572 2.42151 3.5883 3.17165 2.83816C3.9218 2.08801 4.93922 1.66659 6.00008 1.66659C7.06095 1.66659 8.07836 2.08801 8.82851 2.83816C9.57865 3.5883 10.0001 4.60572 10.0001 5.66659C10.0001 7.89325 7.42008 10.7733 6.00008 12.0999ZM6.00008 2.99992C5.47266 2.99992 4.95709 3.15632 4.51856 3.44933C4.08003 3.74235 3.73824 4.15883 3.5364 4.6461C3.33457 5.13337 3.28176 5.66954 3.38465 6.18683C3.48755 6.70411 3.74152 7.17926 4.11446 7.5522C4.4874 7.92514 4.96256 8.17912 5.47984 8.28201C5.99712 8.38491 6.5333 8.3321 7.02057 8.13026C7.50784 7.92843 7.92432 7.58664 8.21733 7.14811C8.51035 6.70957 8.66675 6.194 8.66675 5.66659C8.66675 4.95934 8.3858 4.28106 7.8857 3.78097C7.3856 3.28087 6.70732 2.99992 6.00008 2.99992ZM6.00008 6.99992C5.73637 6.99992 5.47859 6.92172 5.25932 6.77521C5.04006 6.6287 4.86916 6.42046 4.76824 6.17683C4.66733 5.9332 4.64092 5.66511 4.69237 5.40647C4.74381 5.14782 4.8708 4.91025 5.05727 4.72378C5.24374 4.53731 5.48132 4.41032 5.73996 4.35887C5.9986 4.30742 6.26669 4.33383 6.51033 4.43475C6.75396 4.53566 6.9622 4.70656 7.10871 4.92583C7.25522 5.14509 7.33341 5.40288 7.33341 5.66659C7.33341 6.02021 7.19294 6.35935 6.94289 6.60939C6.69284 6.85944 6.3537 6.99992 6.00008 6.99992Z" fill="white" fill-opacity="0.8"/>
</svg>
