<svg width="28" height="22" viewBox="0 0 28 22" fill="none" xmlns="http://www.w3.org/2000/svg">
<path d="M23.3337 0.333344H4.66699C3.60613 0.333344 2.58871 0.754771 1.83857 1.50492C1.08842 2.25506 0.666992 3.27248 0.666992 4.33334V17.6667C0.666992 18.7275 1.08842 19.745 1.83857 20.4951C2.58871 21.2452 3.60613 21.6667 4.66699 21.6667H23.3337C24.3945 21.6667 25.4119 21.2452 26.1621 20.4951C26.9122 19.745 27.3337 18.7275 27.3337 17.6667V4.33334C27.3337 3.27248 26.9122 2.25506 26.1621 1.50492C25.4119 0.754771 24.3945 0.333344 23.3337 0.333344ZM22.787 3.00001L14.947 10.84C14.823 10.965 14.6756 11.0642 14.5131 11.1319C14.3506 11.1996 14.1763 11.2344 14.0003 11.2344C13.8243 11.2344 13.65 11.1996 13.4876 11.1319C13.3251 11.0642 13.1776 10.965 13.0537 10.84L5.21366 3.00001H22.787ZM24.667 17.6667C24.667 18.0203 24.5265 18.3594 24.2765 18.6095C24.0264 18.8595 23.6873 19 23.3337 19H4.66699C4.31337 19 3.97423 18.8595 3.72418 18.6095C3.47413 18.3594 3.33366 18.0203 3.33366 17.6667V4.88001L11.1737 12.72C11.9237 13.4691 12.9403 13.8898 14.0003 13.8898C15.0603 13.8898 16.077 13.4691 16.827 12.72L24.667 4.88001V17.6667Z" fill="#229ED9"/>
</svg>
