<svg width="28" height="28" viewBox="0 0 28 28" fill="none" xmlns="http://www.w3.org/2000/svg">
<path d="M23.8802 15.3333C23.5869 15.3333 23.2802 15.24 22.9869 15.1733C22.3933 15.0406 21.8097 14.8669 21.2402 14.6533C20.6217 14.4283 19.9418 14.44 19.3313 14.6861C18.7209 14.9323 18.223 15.3955 17.9336 15.9867L17.6402 16.6C16.3453 15.8656 15.1491 14.9695 14.0802 13.9333C13.044 12.8645 12.148 11.6682 11.4136 10.3733L12.0269 10.0933C12.6181 9.80388 13.0813 9.30603 13.3274 8.69558C13.5736 8.08513 13.5853 7.40521 13.3602 6.78666C13.1485 6.21203 12.9748 5.62409 12.8402 5.02666C12.7736 4.73332 12.7202 4.42666 12.6802 4.13332C12.5183 3.19415 12.0264 2.34365 11.2931 1.73498C10.5597 1.12631 9.63316 0.799468 8.68023 0.813323H4.6669C4.10323 0.812585 3.54576 0.930987 3.03105 1.16077C2.51634 1.39055 2.05601 1.72652 1.68023 2.14666C1.29666 2.57819 1.01105 3.08766 0.843034 3.64004C0.675018 4.19242 0.628575 4.77463 0.706896 5.34666C1.43168 10.8962 3.96718 16.0515 7.92023 20.0133C11.882 23.9664 17.0374 26.5019 22.5869 27.2267C22.76 27.2399 22.9338 27.2399 23.1069 27.2267C24.0901 27.2281 25.0394 26.8674 25.7736 26.2133C26.1937 25.8375 26.5297 25.3772 26.7595 24.8625C26.9892 24.3478 27.1076 23.7903 27.1069 23.2267V19.2267C27.0997 18.3054 26.7747 17.4148 26.1868 16.7055C25.5989 15.9961 24.7842 15.5114 23.8802 15.3333ZM24.5336 23.3333C24.5331 23.5194 24.4937 23.7033 24.418 23.8732C24.3422 24.0431 24.2317 24.1953 24.0936 24.32C23.9474 24.4531 23.7735 24.5521 23.5844 24.6098C23.3953 24.6674 23.1958 24.6823 23.0002 24.6533C18.0246 24.0035 13.4006 21.736 9.84023 18.2C6.27686 14.6366 3.9896 9.99648 3.33356 4.99999C3.3046 4.80444 3.31948 4.60489 3.37713 4.41579C3.43478 4.2267 3.53376 4.05279 3.6669 3.90666C3.79306 3.76686 3.9474 3.65537 4.11976 3.57953C4.29212 3.50369 4.47859 3.46522 4.6669 3.46666H8.6669C8.97511 3.45912 9.27641 3.55864 9.51952 3.74826C9.76262 3.93787 9.93249 4.20588 10.0002 4.50666C10.0002 4.86666 10.1202 5.23999 10.2002 5.59999C10.3543 6.29847 10.5593 6.98475 10.8136 7.65332L8.9469 8.53332C8.62605 8.68061 8.37671 8.94913 8.25356 9.27999C8.12021 9.60461 8.12021 9.96871 8.25356 10.2933C10.1725 14.4037 13.4766 17.7077 17.5869 19.6267C17.9115 19.76 18.2756 19.76 18.6002 19.6267C18.9311 19.5035 19.1996 19.2542 19.3469 18.9333L20.1869 17.0667C20.8748 17.3175 21.5785 17.5224 22.2936 17.68C22.6402 17.76 23.0136 17.8267 23.3736 17.88C23.6743 17.9477 23.9423 18.1176 24.132 18.3607C24.3216 18.6038 24.4211 18.9051 24.4136 19.2133L24.5336 23.3333ZM16.6669 0.666656C16.3602 0.666656 16.0402 0.666656 15.7336 0.666656C15.3799 0.696714 15.0527 0.866017 14.8239 1.13732C14.5952 1.40862 14.4835 1.7597 14.5136 2.11332C14.5436 2.46695 14.7129 2.79414 14.9842 3.02294C15.2555 3.25173 15.6066 3.36338 15.9602 3.33332H16.6669C18.7886 3.33332 20.8235 4.17618 22.3238 5.67647C23.824 7.17676 24.6669 9.21159 24.6669 11.3333C24.6669 11.5733 24.6669 11.8 24.6669 12.04C24.6373 12.3917 24.7485 12.7409 24.9759 13.0108C25.2034 13.2807 25.5286 13.4495 25.8802 13.48H25.9869C26.3207 13.4813 26.6428 13.3575 26.8897 13.1328C27.1366 12.9082 27.2902 12.5991 27.3202 12.2667C27.3202 11.96 27.3202 11.64 27.3202 11.3333C27.3202 8.50666 26.1983 5.79557 24.2008 3.79556C22.2032 1.79556 19.4936 0.67019 16.6669 0.666656ZM19.3336 11.3333C19.3336 11.6869 19.474 12.0261 19.7241 12.2761C19.9741 12.5262 20.3133 12.6667 20.6669 12.6667C21.0205 12.6667 21.3597 12.5262 21.6097 12.2761C21.8598 12.0261 22.0002 11.6869 22.0002 11.3333C22.0002 9.91884 21.4383 8.56228 20.4381 7.56209C19.4379 6.56189 18.0814 5.99999 16.6669 5.99999C16.3133 5.99999 15.9741 6.14047 15.7241 6.39051C15.474 6.64056 15.3336 6.9797 15.3336 7.33332C15.3336 7.68695 15.474 8.02608 15.7241 8.27613C15.9741 8.52618 16.3133 8.66666 16.6669 8.66666C17.3741 8.66666 18.0524 8.94761 18.5525 9.44771C19.0526 9.9478 19.3336 10.6261 19.3336 11.3333Z" fill="#229ED9"/>
</svg>
