<svg width="16" height="16" viewBox="0 0 16 16" fill="none" xmlns="http://www.w3.org/2000/svg">
<path d="M13.5575 8.75C13.3925 8.75 13.22 8.6975 13.055 8.66C12.7211 8.58534 12.3928 8.48761 12.0725 8.3675C11.7246 8.24092 11.3421 8.2475 10.9987 8.38595C10.6554 8.52441 10.3753 8.78498 10.2125 9.1175L10.0475 9.4625C9.31912 9.0494 8.64623 8.54536 8.04501 7.9625C7.46215 7.36128 6.9581 6.68838 6.54501 5.96L6.89001 5.8025C7.22253 5.63969 7.48309 5.35965 7.62155 5.01627C7.76001 4.67289 7.76658 4.29043 7.64001 3.9425C7.5209 3.61927 7.42319 3.28856 7.34751 2.9525C7.31001 2.7875 7.28001 2.615 7.25751 2.45C7.16643 1.92171 6.88973 1.44331 6.47722 1.10093C6.06472 0.758552 5.54353 0.574707 5.00751 0.5825H2.75001C2.43294 0.582085 2.11937 0.648686 1.82985 0.777938C1.54032 0.90719 1.28138 1.09617 1.07001 1.3325C0.854247 1.57524 0.693593 1.86181 0.599084 2.17253C0.504575 2.48324 0.478451 2.81073 0.522507 3.1325C0.930197 6.2541 2.35641 9.15399 4.58001 11.3825C6.80852 13.6061 9.7084 15.0323 12.83 15.44C12.9274 15.4474 13.0251 15.4474 13.1225 15.44C13.6756 15.4408 14.2096 15.2379 14.6225 14.87C14.8588 14.6586 15.0478 14.3997 15.1771 14.1102C15.3063 13.8206 15.3729 13.5071 15.3725 13.19V10.94C15.3685 10.4218 15.1856 9.92084 14.855 9.52182C14.5243 9.12281 14.066 8.85018 13.5575 8.75ZM13.925 13.25C13.9248 13.3547 13.9026 13.4581 13.86 13.5537C13.8174 13.6493 13.7552 13.7349 13.6775 13.805C13.5953 13.8799 13.4975 13.9356 13.3911 13.968C13.2848 14.0004 13.1725 14.0088 13.0625 13.9925C10.2637 13.627 7.66269 12.3515 5.66001 10.3625C3.65561 8.3581 2.36903 5.74803 2.00001 2.9375C1.98371 2.8275 1.99208 2.71525 2.02451 2.60889C2.05694 2.50252 2.11262 2.4047 2.18751 2.3225C2.25847 2.24386 2.34529 2.18115 2.44224 2.13849C2.5392 2.09583 2.64409 2.07419 2.75001 2.075H5.00001C5.17338 2.07076 5.34286 2.12674 5.47961 2.2334C5.61635 2.34006 5.71191 2.49081 5.75001 2.66C5.75001 2.8625 5.81751 3.0725 5.86251 3.275C5.94919 3.6679 6.0645 4.05393 6.20751 4.43L5.15751 4.925C4.97703 5.00785 4.83678 5.15889 4.76751 5.345C4.69249 5.5276 4.69249 5.7324 4.76751 5.915C5.84691 8.22707 7.70544 10.0856 10.0175 11.165C10.2001 11.24 10.4049 11.24 10.5875 11.165C10.7736 11.0957 10.9247 10.9555 11.0075 10.775L11.48 9.725C11.8669 9.86609 12.2628 9.98135 12.665 10.07C12.86 10.115 13.07 10.1525 13.2725 10.1825C13.4417 10.2206 13.5924 10.3162 13.6991 10.4529C13.8058 10.5896 13.8617 10.7591 13.8575 10.9325L13.925 13.25ZM9.50001 0.5C9.32751 0.5 9.14751 0.5 8.97501 0.5C8.77609 0.516908 8.59205 0.61214 8.46335 0.764748C8.33465 0.917356 8.27185 1.11484 8.28876 1.31375C8.30566 1.51266 8.4009 1.69671 8.5535 1.82541C8.70611 1.95411 8.90359 2.01691 9.10251 2H9.50001C10.6935 2 11.8381 2.47411 12.682 3.31802C13.5259 4.16193 14 5.30653 14 6.5C14 6.635 14 6.7625 14 6.8975C13.9834 7.09536 14.0459 7.29173 14.1738 7.44358C14.3018 7.59542 14.4847 7.69033 14.6825 7.7075H14.7425C14.9303 7.70826 15.1115 7.63858 15.2503 7.51221C15.3892 7.38584 15.4756 7.21199 15.4925 7.025C15.4925 6.8525 15.4925 6.6725 15.4925 6.5C15.4925 4.91 14.8614 3.38501 13.7378 2.26001C12.6142 1.13501 11.09 0.501988 9.50001 0.5ZM11 6.5C11 6.69891 11.079 6.88968 11.2197 7.03033C11.3603 7.17098 11.5511 7.25 11.75 7.25C11.9489 7.25 12.1397 7.17098 12.2803 7.03033C12.421 6.88968 12.5 6.69891 12.5 6.5C12.5 5.70435 12.1839 4.94129 11.6213 4.37868C11.0587 3.81607 10.2957 3.5 9.50001 3.5C9.30109 3.5 9.11033 3.57902 8.96968 3.71967C8.82902 3.86032 8.75001 4.05109 8.75001 4.25C8.75001 4.44891 8.82902 4.63968 8.96968 4.78033C9.11033 4.92098 9.30109 5 9.50001 5C9.89783 5 10.2794 5.15804 10.5607 5.43934C10.842 5.72064 11 6.10218 11 6.5Z" fill="#212121"/>
</svg>
