<svg width="14" height="14" viewBox="0 0 14 14" fill="none" xmlns="http://www.w3.org/2000/svg">
<path d="M11.94 7.66659C11.7933 7.66659 11.64 7.61992 11.4933 7.58659C11.1966 7.52023 10.9047 7.43335 10.62 7.32659C10.3107 7.21407 9.97076 7.21991 9.66553 7.34299C9.36031 7.46606 9.11138 7.69768 8.96666 7.99325L8.81999 8.29992C8.17254 7.93272 7.57441 7.48468 7.03999 6.96659C6.52189 6.43217 6.07386 5.83404 5.70666 5.18659L6.01333 5.04659C6.3089 4.90186 6.54051 4.65294 6.66359 4.34771C6.78666 4.04249 6.79251 3.70253 6.67999 3.39325C6.57412 3.10594 6.48726 2.81197 6.41999 2.51325C6.38666 2.36659 6.35999 2.21325 6.33999 2.06659C6.25904 1.597 6.01308 1.17175 5.64641 0.867411C5.27974 0.563076 4.81646 0.399658 4.33999 0.406585H2.33333C2.05149 0.406216 1.77276 0.465417 1.5154 0.580308C1.25805 0.695198 1.02788 0.863184 0.839993 1.07325C0.648206 1.28902 0.505403 1.54375 0.421395 1.81994C0.337387 2.09613 0.314165 2.38724 0.353326 2.67325C0.715717 5.44801 1.98347 8.02569 3.95999 10.0066C5.94089 11.9831 8.51857 13.2509 11.2933 13.6133C11.3799 13.6199 11.4668 13.6199 11.5533 13.6133C12.0449 13.614 12.5196 13.4336 12.8867 13.1066C13.0967 12.9187 13.2647 12.6885 13.3796 12.4312C13.4945 12.1738 13.5537 11.8951 13.5533 11.6133V9.61325C13.5497 9.15261 13.3872 8.70733 13.0933 8.35265C12.7993 7.99797 12.392 7.75563 11.94 7.66659ZM12.2667 11.6666C12.2664 11.7596 12.2468 11.8516 12.2089 11.9365C12.171 12.0215 12.1157 12.0976 12.0467 12.1599C11.9736 12.2265 11.8866 12.276 11.7921 12.3048C11.6975 12.3336 11.5978 12.3411 11.5 12.3266C9.01217 12.0017 6.70016 10.8679 4.91999 9.09992C3.13831 7.31823 1.99468 4.99816 1.66666 2.49992C1.65218 2.40214 1.65962 2.30237 1.68844 2.20782C1.71727 2.11327 1.76676 2.02632 1.83333 1.95325C1.89641 1.88335 1.97358 1.82761 2.05976 1.78969C2.14594 1.75177 2.23917 1.73254 2.33333 1.73325H4.33333C4.48743 1.72949 4.63808 1.77924 4.75964 1.87405C4.88119 1.96886 4.96613 2.10286 4.99999 2.25325C4.99999 2.43325 5.05999 2.61992 5.09999 2.79992C5.17704 3.14916 5.27954 3.4923 5.40666 3.82659L4.47333 4.26659C4.3129 4.34023 4.18823 4.47449 4.12666 4.63992C4.05998 4.80223 4.05998 4.98428 4.12666 5.14659C5.08613 7.20176 6.73816 8.85378 8.79333 9.81325C8.95563 9.87993 9.13768 9.87993 9.29999 9.81325C9.46542 9.75168 9.59968 9.62701 9.67333 9.46659L10.0933 8.53325C10.4373 8.65867 10.7891 8.76111 11.1467 8.83992C11.32 8.87992 11.5067 8.91325 11.6867 8.93992C11.837 8.97379 11.9711 9.05873 12.0659 9.18028C12.1607 9.30183 12.2104 9.45248 12.2067 9.60659L12.2667 11.6666ZM8.33333 0.333252C8.17999 0.333252 8.01999 0.333252 7.86666 0.333252C7.68985 0.348281 7.52625 0.432932 7.41185 0.568583C7.29745 0.704235 7.24163 0.879774 7.25666 1.05659C7.27169 1.2334 7.35634 1.397 7.49199 1.51139C7.62764 1.62579 7.80318 1.68161 7.97999 1.66659H8.33333C9.39419 1.66659 10.4116 2.08801 11.1618 2.83816C11.9119 3.5883 12.3333 4.60572 12.3333 5.66659C12.3333 5.78659 12.3333 5.89992 12.3333 6.01992C12.3185 6.19579 12.3741 6.37035 12.4878 6.50532C12.6016 6.64029 12.7642 6.72465 12.94 6.73992H12.9933C13.1602 6.7406 13.3213 6.67865 13.4447 6.56633C13.5682 6.454 13.645 6.29947 13.66 6.13325C13.66 5.97992 13.66 5.81992 13.66 5.66659C13.66 4.25325 13.099 2.89771 12.1003 1.8977C11.1015 0.897702 9.74666 0.335019 8.33333 0.333252ZM9.66666 5.66659C9.66666 5.8434 9.7369 6.01297 9.86192 6.13799C9.98695 6.26301 10.1565 6.33325 10.3333 6.33325C10.5101 6.33325 10.6797 6.26301 10.8047 6.13799C10.9298 6.01297 11 5.8434 11 5.66659C11 4.95934 10.719 4.28106 10.2189 3.78097C9.71885 3.28087 9.04057 2.99992 8.33333 2.99992C8.15652 2.99992 7.98695 3.07016 7.86192 3.19518C7.7369 3.32021 7.66666 3.48977 7.66666 3.66659C7.66666 3.8434 7.7369 4.01297 7.86192 4.13799C7.98695 4.26301 8.15652 4.33325 8.33333 4.33325C8.68695 4.33325 9.02609 4.47373 9.27613 4.72378C9.52618 4.97382 9.66666 5.31296 9.66666 5.66659Z" fill="white" fill-opacity="0.8"/>
</svg>
