<svg width="18" height="18" viewBox="0 0 18 18" fill="none" xmlns="http://www.w3.org/2000/svg">
<path d="M9.00017 0C4.03757 0 0.000488281 4.03729 0.000488281 8.99968C0.000488281 13.9623 4.03757 18 9.00017 18C13.9628 18 18.0005 13.9623 18.0005 8.99968C18.0005 4.03729 13.9628 0 9.00017 0ZM9.00017 16.7634C4.71943 16.7634 1.2371 13.2806 1.2371 8.99968C1.2371 4.71894 4.71943 1.23661 9.00017 1.23661C13.2811 1.23661 16.7639 4.71894 16.7639 8.99968C16.7639 13.2806 13.2811 16.7634 9.00017 16.7634Z" fill="#212121"/>
<path d="M12.2492 5.20816L4.59611 8.33555C4.59611 8.33555 4.23428 8.46468 4.26229 8.70286C4.29105 8.94146 4.5863 9.05061 4.5863 9.05061L6.51198 9.72558C6.51198 9.72558 7.09323 11.711 7.20763 12.0887C7.32202 12.4655 7.4138 12.4743 7.4138 12.4743C7.52033 12.5226 7.61717 12.4458 7.61717 12.4458L8.86131 11.2645L10.8003 12.8131C11.3248 13.0514 11.5157 12.5549 11.5157 12.5549L12.8782 5.39715C12.8782 4.92038 12.2492 5.20816 12.2492 5.20816ZM10.8943 11.9793L8.81984 10.323L8.17612 10.934L8.31766 9.6341L11.0828 7.06101L7.31362 9.25811L5.64173 8.67219L12.0205 6.06536L10.8943 11.9793Z" fill="#212121"/>
</svg>
