<svg width="33" height="32" viewBox="0 0 33 32" fill="none" xmlns="http://www.w3.org/2000/svg">
<path d="M16.4281 0C7.60574 0 0.428711 7.17741 0.428711 15.9994C0.428711 24.8218 7.60574 32 16.4281 32C25.2505 32 32.4287 24.8218 32.4287 15.9994C32.4287 7.17741 25.2505 0 16.4281 0ZM16.4281 29.8016C8.81793 29.8016 2.62713 23.61 2.62713 15.9994C2.62713 8.38922 8.81793 2.19842 16.4281 2.19842C24.0387 2.19842 30.2303 8.38922 30.2303 15.9994C30.2303 23.61 24.0387 29.8016 16.4281 29.8016Z" fill="white" />
<path d="M22.1747 9.259L8.56923 14.8188C8.56923 14.8188 7.92598 15.0484 7.97577 15.4718C8.0269 15.896 8.5518 16.09 8.5518 16.09L11.9752 17.29C11.9752 17.29 13.0086 20.8195 13.2119 21.4911C13.4153 22.1609 13.5785 22.1767 13.5785 22.1767C13.7678 22.2624 13.94 22.1259 13.94 22.1259L16.1518 20.0259L19.599 22.7789C20.5314 23.2025 20.8707 22.3199 20.8707 22.3199L23.293 9.59499C23.293 8.74739 22.1747 9.259 22.1747 9.259ZM19.766 21.2965L16.0781 18.3521L14.9337 19.4383L15.1853 17.1273L20.1011 12.553L13.4004 16.4589L10.4281 15.4173L21.7681 10.7829L19.766 21.2965Z" fill="white" />
</svg>
