<svg width="18" height="18" viewBox="0 0 18 18" fill="none" xmlns="http://www.w3.org/2000/svg">
<path d="M9.00017 0C4.03757 0 0.000488281 4.03729 0.000488281 8.99968C0.000488281 13.9623 4.03757 18 9.00017 18C13.9628 18 18.0005 13.9623 18.0005 8.99968C18.0005 4.03729 13.9628 0 9.00017 0ZM9.00017 16.7634C4.71943 16.7634 1.2371 13.2806 1.2371 8.99968C1.2371 4.71894 4.71943 1.23661 9.00017 1.23661C13.2811 1.23661 16.7639 4.71894 16.7639 8.99968C16.7639 13.2806 13.2811 16.7634 9.00017 16.7634Z" fill="#212121"/>
<path fill-rule="evenodd" clip-rule="evenodd" d="M8.7995 4.93724C8.7995 4.68227 9.01229 4.47559 9.27477 4.47559H10.5723C10.8192 4.47559 11.025 4.65923 11.0459 4.8982C11.1081 5.61097 11.4206 5.99977 11.753 6.21992C12.1061 6.45386 12.5191 6.52029 12.7754 6.50918L13.2502 6.48859L13.2926 7.41098L12.8178 7.43156C12.3943 7.44992 11.7694 7.3484 11.2174 6.98271C10.731 6.6605 10.3261 6.14867 10.1623 5.39889H9.75005V9.88748C9.75005 10.7154 9.4119 11.3748 8.88175 11.7379C8.34925 12.1026 7.64998 12.1382 7.09043 11.7434C6.40963 11.2631 6.28889 10.4971 6.56387 9.89761C6.77379 9.43999 7.21316 9.07792 7.78003 8.98939V8.43723C7.43708 8.48406 7.0532 8.58747 6.7226 8.78758C6.25893 9.06823 5.85754 9.56127 5.85754 10.5062C5.85754 11.1257 6.02849 11.5468 6.26217 11.8384C6.4991 12.134 6.8291 12.3317 7.2031 12.4526C7.57888 12.574 7.9832 12.6123 8.33642 12.5977C8.70298 12.5825 8.95894 12.5132 9.0547 12.4646C9.60378 12.186 9.88094 11.9282 10.0409 11.6229C10.2093 11.3016 10.2824 10.8644 10.2824 10.1527V7.67755C10.2824 7.51815 10.367 7.37002 10.5063 7.28573C10.6456 7.20144 10.8198 7.1929 10.9671 7.26315C11.2371 7.39193 12.0192 7.68294 12.8353 7.74782L13.309 7.78548L13.2315 8.70571L12.7578 8.66805C12.1951 8.62331 11.6545 8.49087 11.2329 8.35539V10.1527C11.2329 10.8983 11.1623 11.5184 10.8881 12.0417C10.6055 12.5809 10.1412 12.955 9.49484 13.283C9.22327 13.4208 8.80901 13.5023 8.37684 13.5202C7.93134 13.5386 7.40845 13.4921 6.90293 13.3286C6.39563 13.1646 5.89026 12.8773 5.51213 12.4056C5.13076 11.9298 4.90698 11.3012 4.90698 10.5062C4.90698 9.24129 5.47872 8.45258 6.21988 8.00397C6.9275 7.57565 7.7463 7.48109 8.25531 7.48109C8.51779 7.48109 8.73058 7.68778 8.73058 7.94274V9.44547C8.73058 9.57995 8.67022 9.70774 8.56527 9.79544C8.46032 9.88314 8.32121 9.92203 8.18432 9.90195C7.806 9.84644 7.54215 10.0335 7.43214 10.2734C7.32375 10.5097 7.36263 10.7943 7.64907 10.9964C7.85112 11.1389 8.10438 11.1405 8.33398 10.9833C8.56594 10.8244 8.7995 10.4739 8.7995 9.88748V4.93724Z" fill="#212121"/>
</svg>
