<svg width="33" height="32" viewBox="0 0 33 32" fill="none" xmlns="http://www.w3.org/2000/svg">
<path d="M16.7138 0C7.89139 0 0.714355 7.17741 0.714355 15.9994C0.714355 24.8218 7.89139 32 16.7138 32C25.5362 32 32.7144 24.8218 32.7144 15.9994C32.7144 7.17741 25.5362 0 16.7138 0ZM16.7138 29.8016C9.10358 29.8016 2.91277 23.61 2.91277 15.9994C2.91277 8.38922 9.10358 2.19842 16.7138 2.19842C24.3244 2.19842 30.5159 8.38922 30.5159 15.9994C30.5159 23.61 24.3244 29.8016 16.7138 29.8016Z" fill="white"/>
<path fill-rule="evenodd" clip-rule="evenodd" d="M16.3572 8.77726C16.3572 8.32399 16.7355 7.95654 17.2021 7.95654H19.5088C19.9477 7.95654 20.3136 8.28302 20.3507 8.70786C20.4614 9.975 21.017 10.6662 21.6077 11.0576C22.2355 11.4735 22.9699 11.5916 23.4254 11.5718L24.2695 11.5352L24.3448 13.175L23.5007 13.2116C22.748 13.2443 21.637 13.0638 20.6556 12.4137C19.7909 11.8408 19.0711 10.9309 18.7799 9.59797H18.047V17.5777C18.047 19.0495 17.4459 20.2218 16.5034 20.8673C15.5567 21.5157 14.3136 21.579 13.3188 20.8771C12.1085 20.0232 11.8939 18.6614 12.3827 17.5957C12.7559 16.7821 13.537 16.1385 14.5448 15.9811V14.9995C13.9351 15.0827 13.2526 15.2666 12.6649 15.6223C11.8406 16.1212 11.127 16.9978 11.127 18.6777C11.127 19.7789 11.4309 20.5276 11.8464 21.0459C12.2676 21.5715 12.8542 21.9229 13.5191 22.1379C14.1872 22.3538 14.906 22.4218 15.5339 22.3959C16.1856 22.3689 16.6406 22.2457 16.8109 22.1593C17.787 21.6639 18.2797 21.2056 18.5642 20.6628C18.8635 20.0916 18.9934 19.3145 18.9934 18.0491V13.6489C18.9934 13.3655 19.1439 13.1022 19.3915 12.9524C19.6391 12.8025 19.9488 12.7873 20.2107 12.9122C20.6907 13.1411 22.0811 13.6585 23.532 13.7739L24.3741 13.8408L24.2363 15.4768L23.3941 15.4098C22.3938 15.3303 21.4328 15.0948 20.6832 14.854V18.0491C20.6832 19.3747 20.5577 20.4771 20.0702 21.4074C19.5678 22.366 18.7425 23.031 17.5933 23.6141C17.1105 23.8591 16.3741 24.004 15.6058 24.0358C14.8138 24.0686 13.8842 23.9858 12.9855 23.6953C12.0836 23.4037 11.1852 22.893 10.513 22.0543C9.83496 21.2084 9.43713 20.091 9.43713 18.6777C9.43713 16.4289 10.4536 15.0268 11.7712 14.2292C13.0292 13.4678 14.4848 13.2997 15.3897 13.2997C15.8564 13.2997 16.2346 13.6671 16.2346 14.1204V16.7919C16.2346 17.031 16.1273 17.2581 15.9407 17.4141C15.7542 17.57 15.5069 17.6391 15.2635 17.6034C14.5909 17.5047 14.1219 17.8374 13.9263 18.2637C13.7336 18.6838 13.8027 19.1898 14.312 19.5491C14.6712 19.8025 15.1214 19.8054 15.5296 19.5258C15.9419 19.2434 16.3572 18.6202 16.3572 17.5777V8.77726Z" fill="white"/>
</svg>
