<svg width="30" height="26" viewBox="0 0 30 26" fill="none" xmlns="http://www.w3.org/2000/svg">
<path d="M0.333252 13.6667V20.3334C0.333252 20.687 0.473728 21.0261 0.723776 21.2762C0.973825 21.5262 1.31296 21.6667 1.66659 21.6667H2.99992C2.99992 22.7276 3.42135 23.745 4.17149 24.4951C4.92164 25.2453 5.93905 25.6667 6.99992 25.6667C8.06078 25.6667 9.0782 25.2453 9.82835 24.4951C10.5785 23.745 10.9999 22.7276 10.9999 21.6667H18.9999C18.9999 22.7276 19.4213 23.745 20.1715 24.4951C20.9216 25.2453 21.9391 25.6667 22.9999 25.6667C24.0608 25.6667 25.0782 25.2453 25.8283 24.4951C26.5785 23.745 26.9999 22.7276 26.9999 21.6667H28.3333C28.6869 21.6667 29.026 21.5262 29.2761 21.2762C29.5261 21.0261 29.6666 20.687 29.6666 20.3334V4.33337C29.6666 3.27251 29.2452 2.25509 28.495 1.50495C27.7449 0.754801 26.7274 0.333374 25.6666 0.333374H13.6666C12.6057 0.333374 11.5883 0.754801 10.8382 1.50495C10.088 2.25509 9.66658 3.27251 9.66658 4.33337V7.00004H6.99992C6.37894 7.00004 5.76649 7.14462 5.21106 7.42233C4.65564 7.70004 4.17251 8.10326 3.79992 8.60004L0.599919 12.8667C0.56092 12.9247 0.529551 12.9874 0.506585 13.0534L0.426585 13.2C0.36774 13.3487 0.336125 13.5068 0.333252 13.6667ZM21.6666 21.6667C21.6666 21.403 21.7448 21.1452 21.8913 20.9259C22.0378 20.7067 22.246 20.5358 22.4897 20.4349C22.7333 20.334 23.0014 20.3075 23.26 20.359C23.5187 20.4104 23.7563 20.5374 23.9427 20.7239C24.1292 20.9104 24.2562 21.1479 24.3076 21.4066C24.3591 21.6652 24.3327 21.9333 24.2318 22.177C24.1308 22.4206 23.9599 22.6288 23.7407 22.7753C23.5214 22.9218 23.2636 23 22.9999 23C22.6463 23 22.3072 22.8596 22.0571 22.6095C21.8071 22.3595 21.6666 22.0203 21.6666 21.6667ZM12.3333 4.33337C12.3333 3.97975 12.4737 3.64061 12.7238 3.39057C12.9738 3.14052 13.313 3.00004 13.6666 3.00004H25.6666C26.0202 3.00004 26.3593 3.14052 26.6094 3.39057C26.8594 3.64061 26.9999 3.97975 26.9999 4.33337V19H25.9599C25.585 18.5876 25.128 18.258 24.6183 18.0325C24.1086 17.807 23.5573 17.6905 22.9999 17.6905C22.4425 17.6905 21.8913 17.807 21.3815 18.0325C20.8718 18.258 20.4148 18.5876 20.0399 19H12.3333V4.33337ZM9.66658 12.3334H4.33325L5.93325 10.2C6.05745 10.0344 6.21849 9.90004 6.40363 9.80747C6.58877 9.7149 6.79292 9.66671 6.99992 9.66671H9.66658V12.3334ZM5.66658 21.6667C5.66658 21.403 5.74478 21.1452 5.89129 20.9259C6.0378 20.7067 6.24604 20.5358 6.48967 20.4349C6.73331 20.334 7.0014 20.3075 7.26004 20.359C7.51868 20.4104 7.75626 20.5374 7.94273 20.7239C8.1292 20.9104 8.25619 21.1479 8.30763 21.4066C8.35908 21.6652 8.33267 21.9333 8.23176 22.177C8.13084 22.4206 7.95994 22.6288 7.74068 22.7753C7.52141 22.9218 7.26363 23 6.99992 23C6.6463 23 6.30716 22.8596 6.05711 22.6095C5.80706 22.3595 5.66658 22.0203 5.66658 21.6667ZM2.99992 15H9.66658V18.7067C8.87969 18.0034 7.84676 17.6397 6.79284 17.6946C5.73892 17.7495 4.74942 18.2188 4.03992 19H2.99992V15Z" fill="#229ED9"/>
</svg>
