<svg width="18" height="18" viewBox="0 0 18 18" fill="none" xmlns="http://www.w3.org/2000/svg">
<path d="M12.7812 6.11828C12.4777 6.29774 12.1422 6.42851 11.7848 6.49917C11.4985 6.19454 11.0902 6.00366 10.64 6.00366C9.77348 6.00366 9.07136 6.70578 9.07136 7.57228C9.07136 7.69508 9.08493 7.81508 9.11165 7.92926C7.80824 7.86442 6.6524 7.23986 5.87833 6.29063C5.74303 6.52244 5.6659 6.79217 5.6659 7.07957C5.6659 7.62334 5.94274 8.10377 6.36414 8.38513C6.10669 8.37716 5.86519 8.30628 5.65362 8.18865C5.65319 8.19512 5.65319 8.20223 5.65319 8.2089C5.65319 8.96855 6.19352 9.60302 6.91201 9.74671C6.77973 9.78291 6.64163 9.8023 6.49836 9.8023C6.39754 9.8023 6.2993 9.79217 6.20364 9.77407C6.40335 10.3969 6.98203 10.8506 7.66863 10.8631C7.13197 11.2841 6.45571 11.5349 5.72019 11.5349C5.59373 11.5349 5.46899 11.5278 5.34619 11.5127C6.04034 11.9576 6.86526 12.2176 7.75115 12.2176C10.6367 12.2176 12.2144 9.82707 12.2144 7.75433C12.2144 7.68646 12.2127 7.6186 12.2099 7.55117C12.5162 7.33013 12.7821 7.05393 12.9924 6.73939C12.711 6.86391 12.4087 6.94794 12.0914 6.98585C12.4152 6.79217 12.664 6.48409 12.7812 6.11828Z" fill="#212121"/>
<path d="M9.00022 0C4.03756 0 0 4.03713 0 8.99978C0 13.9624 4.03756 18 9.00022 18C13.9629 18 18.0004 13.9624 18.0004 8.99978C18.0004 4.03713 13.9629 0 9.00022 0ZM9.00022 16.7634C4.71943 16.7634 1.23662 13.2806 1.23662 8.99978C1.23662 4.71899 4.71943 1.23641 9.00022 1.23641C13.281 1.23641 16.7638 4.71899 16.7638 8.99978C16.7638 13.2806 13.281 16.7634 9.00022 16.7634Z" fill="#212121"/>
</svg>
