<svg width="33" height="32" viewBox="0 0 33 32" fill="none" xmlns="http://www.w3.org/2000/svg">
<path d="M23.2932 10.8771C22.7535 11.1961 22.1572 11.4286 21.5218 11.5542C21.0128 11.0127 20.287 10.6733 19.4865 10.6733C17.9461 10.6733 16.6978 11.9216 16.6978 13.462C16.6978 13.6803 16.722 13.8936 16.7695 14.0966C14.4523 13.9813 12.3975 12.871 11.0213 11.1835C10.7808 11.5956 10.6437 12.0751 10.6437 12.5861C10.6437 13.5528 11.1359 14.4069 11.885 14.9071C11.4273 14.8929 10.998 14.7669 10.6219 14.5578C10.6211 14.5693 10.6211 14.5819 10.6211 14.5938C10.6211 15.9442 11.5817 17.0722 12.859 17.3277C12.6238 17.392 12.3783 17.4265 12.1236 17.4265C11.9444 17.4265 11.7697 17.4085 11.5997 17.3763C11.9547 18.4836 12.9835 19.2902 14.2041 19.3124C13.25 20.0608 12.0478 20.5066 10.7402 20.5066C10.5154 20.5066 10.2936 20.4939 10.0753 20.4671C11.3094 21.258 12.7759 21.7203 14.3508 21.7203C19.4808 21.7203 22.2855 17.4705 22.2855 13.7856C22.2855 13.665 22.2824 13.5443 22.2774 13.4245C22.8221 13.0315 23.2947 12.5405 23.6685 11.9813C23.1683 12.2027 22.631 12.352 22.0668 12.4195C22.6425 12.0751 23.0848 11.5274 23.2932 10.8771Z" fill="white"/>
<path d="M16.5715 0C7.74899 0 0.571106 7.17712 0.571106 15.9996C0.571106 24.8221 7.74899 32 16.5715 32C25.394 32 32.5719 24.8221 32.5719 15.9996C32.5719 7.17712 25.394 0 16.5715 0ZM16.5715 29.8016C8.9612 29.8016 2.76955 23.6099 2.76955 15.9996C2.76955 8.38932 8.9612 2.19806 16.5715 2.19806C24.1818 2.19806 30.3734 8.38932 30.3734 15.9996C30.3734 23.6099 24.1818 29.8016 16.5715 29.8016Z" fill="white"/>
</svg>
