<svg width="30" height="25" viewBox="0 0 30 25" fill="none" xmlns="http://www.w3.org/2000/svg">
<path d="M29.9067 6.27874C29.7596 6.04773 29.474 5.94071 29.2085 6.01771C28.7131 6.1599 28.0845 6.28905 27.3397 6.40153C28.0295 6.05531 28.5793 5.68483 28.9715 5.29951C29.1841 5.09123 29.2129 4.76351 29.041 4.52279C28.8683 4.28207 28.545 4.19658 28.273 4.32179C27.5527 4.65255 26.7686 4.82232 25.9422 4.82717C24.5342 1.86522 22.0198 0.768655 21.9231 0.727727C20.3884 0.0446889 18.9266 -0.160253 17.6194 0.124422C14.1182 0.887497 12.5167 4.97209 13.0405 8.31937C12.11 8.25631 7.15232 7.76669 0.923218 4.29723C0.730374 4.18991 0.493337 4.19143 0.302038 4.3036C0.111358 4.41517 -0.00391589 4.61829 0.000101691 4.83596C0.0727272 8.46004 3.44749 10.1899 4.89475 10.7653C4.5888 10.7963 4.1175 10.8029 3.66043 10.7841C3.38599 10.7726 3.1332 10.9442 3.0479 11.2028C2.9626 11.4617 3.06273 11.7443 3.29328 11.8946C4.30664 12.5571 5.32247 12.9912 6.31265 13.1864C6.09848 13.201 5.87535 13.2107 5.6584 13.2177C5.38273 13.2262 5.14631 13.4129 5.07863 13.6751C5.01126 13.9377 5.12901 14.2121 5.3679 14.3479C6.29441 14.8757 7.73271 15.5051 9.328 15.5051L9.44296 15.5039H9.44265C9.2668 15.5675 9.06932 15.6236 8.85454 15.6703C8.78902 15.6845 8.7232 15.6979 8.65768 15.7097C8.37861 15.7609 8.17124 15.9926 8.15455 16.2703C8.13756 16.5483 8.31587 16.8014 8.58691 16.8842C9.76035 17.2443 10.8553 17.3277 11.7858 17.1246C11.9611 17.0864 12.1341 17.0367 12.2988 16.9779H12.2991C12.2741 17.908 11.7753 21.0352 6.41463 22.2033L6.34479 22.2178C6.00855 22.2912 5.29651 22.3767 4.39626 22.3767C4.02541 22.3767 3.65363 22.3624 3.2905 22.3345C2.99104 22.3094 2.72 22.5016 2.64429 22.7854C2.56857 23.0697 2.71104 23.3659 2.98269 23.489C5.03567 24.4206 7.29108 24.9291 9.68711 24.9997C9.69359 24.9997 9.69947 25 9.70596 25C10.9907 25 12.275 24.8621 13.5239 24.5898C15.8139 24.0908 18.039 23.1325 20.1368 21.7415L20.1378 21.7412C20.1838 21.7237 20.228 21.7012 20.2688 21.6733C23.2548 19.6524 25.4518 16.8245 26.7974 13.2674C26.8023 13.2553 26.806 13.2428 26.81 13.2304C27.3546 11.4496 27.5428 9.83915 27.3706 8.44397C28.4313 8.10897 29.2611 7.62511 29.8377 7.00665C30.025 6.80807 30.0531 6.50976 29.9067 6.27874Z" fill="white"/>
</svg>
