<svg width="14" height="14" viewBox="0 0 14 14" fill="none" xmlns="http://www.w3.org/2000/svg">
<path d="M9.47431 7.47325C10.1279 6.95903 10.605 6.25387 10.8391 5.45588C11.0733 4.6579 11.0529 3.80676 10.7808 3.0209C10.5087 2.23503 9.99848 1.55352 9.32102 1.07116C8.64357 0.5888 7.83261 0.32959 7.00098 0.32959C6.16934 0.32959 5.35838 0.5888 4.68093 1.07116C4.00347 1.55352 3.4932 2.23503 3.22112 3.0209C2.94903 3.80676 2.92865 4.6579 3.16282 5.45588C3.39698 6.25387 3.87405 6.95903 4.52764 7.47325C3.40769 7.92195 2.4305 8.66615 1.70024 9.62653C0.969973 10.5869 0.514016 11.7275 0.380974 12.9266C0.371344 13.0141 0.379052 13.1027 0.403658 13.1873C0.428264 13.2719 0.469286 13.3508 0.524382 13.4195C0.635654 13.5582 0.797497 13.6471 0.974308 13.6666C1.15112 13.686 1.32841 13.6345 1.46719 13.5232C1.60597 13.4119 1.69486 13.2501 1.71431 13.0733C1.8607 11.7701 2.4821 10.5665 3.45979 9.69245C4.43748 8.81844 5.70291 8.33527 7.01431 8.33527C8.32571 8.33527 9.59114 8.81844 10.5688 9.69245C11.5465 10.5665 12.1679 11.7701 12.3143 13.0733C12.3324 13.2371 12.4106 13.3884 12.5337 13.4979C12.6568 13.6075 12.8162 13.6676 12.981 13.6666H13.0543C13.2291 13.6465 13.3888 13.5581 13.4987 13.4208C13.6086 13.2834 13.6597 13.1082 13.641 12.9333C13.5073 11.7307 13.0489 10.5872 12.3149 9.62539C11.5809 8.66354 10.5989 7.91957 9.47431 7.47325ZM7.00098 6.99992C6.47356 6.99992 5.95799 6.84352 5.51945 6.55051C5.08092 6.25749 4.73913 5.84101 4.5373 5.35374C4.33546 4.86647 4.28265 4.3303 4.38555 3.81301C4.48844 3.29573 4.74242 2.82058 5.11536 2.44764C5.4883 2.0747 5.96345 1.82072 6.48073 1.71783C6.99802 1.61493 7.5342 1.66774 8.02146 1.86958C8.50873 2.07141 8.92521 2.4132 9.21823 2.85173C9.51124 3.29026 9.66764 3.80584 9.66764 4.33325C9.66764 5.0405 9.38669 5.71878 8.88659 6.21887C8.3865 6.71897 7.70822 6.99992 7.00098 6.99992Z" fill="#229ED9"/>
</svg>
