<svg width="18" height="18" viewBox="0 0 18 18" fill="none" xmlns="http://www.w3.org/2000/svg">
<path d="M11.8824 6.38152C10.0188 6.23546 7.98204 6.23546 6.11935 6.38152C5.53659 6.45262 5.0973 6.84472 4.98484 7.42167C4.85278 8.42949 4.85278 9.57068 4.98441 10.5783C5.09709 11.1552 5.53659 11.5471 6.11935 11.6184C7.98204 11.7647 10.0188 11.7645 11.8824 11.6184C12.4643 11.5467 12.9031 11.1559 13.0164 10.5783C13.1476 9.57003 13.1476 8.42971 13.0164 7.42167C12.9031 6.84429 12.4643 6.45348 11.8824 6.38152ZM8.44373 10.1097V7.89046L10.4189 8.99998L8.44373 10.1097Z" fill="#212121"/>
<path d="M9.00049 0C4.03783 0 0.000488281 4.03734 0.000488281 8.99978C0.000488281 13.9624 4.03783 18 9.00049 18C13.9631 18 18.0005 13.9624 18.0005 8.99978C18.0005 4.03734 13.9631 0 9.00049 0ZM9.00049 16.7634C4.71948 16.7634 1.23711 13.2806 1.23711 8.99978C1.23711 4.71899 4.71948 1.23662 9.00049 1.23662C13.2811 1.23662 16.7639 4.71899 16.7639 8.99978C16.7639 13.2806 13.2811 16.7634 9.00049 16.7634Z" fill="#212121"/>
</svg>
