<svg width="33" height="32" viewBox="0 0 33 32" fill="none" xmlns="http://www.w3.org/2000/svg">
<path d="M21.7663 11.3447C18.4533 11.085 14.8324 11.085 11.521 11.3447C10.4849 11.4711 9.70399 12.1681 9.50406 13.1938C9.26928 14.9855 9.26928 17.0143 9.5033 18.8056C9.70361 19.8313 10.4849 20.528 11.521 20.6547C14.8324 20.9148 18.4533 20.9144 21.7663 20.6547C22.8008 20.5272 23.581 19.8324 23.7825 18.8056C24.0157 17.0131 24.0157 14.9859 23.7825 13.1938C23.581 12.1674 22.8008 11.4726 21.7663 11.3447ZM15.6532 17.9725V14.0272L19.1646 15.9997L15.6532 17.9725Z" fill="white" />
<path d="M16.6428 0C7.82032 0 0.642822 7.1775 0.642822 15.9996C0.642822 24.8221 7.82032 32 16.6428 32C25.4653 32 32.6428 24.8221 32.6428 15.9996C32.6428 7.1775 25.4653 0 16.6428 0ZM16.6428 29.8016C9.03215 29.8016 2.84127 23.6099 2.84127 15.9996C2.84127 8.38932 9.03215 2.19844 16.6428 2.19844C24.2527 2.19844 30.4444 8.38932 30.4444 15.9996C30.4444 23.6099 24.2527 29.8016 16.6428 29.8016Z" fill="white" />
</svg>
